{
    "asset" : {
        "generator" : "Khronos glTF Blender I/O v1.2.75",
        "version" : "2.0"
    },
    "scene" : 0,
    "scenes" : [
        {
            "name" : "Scene",
            "nodes" : [
                0,
                1,
                2,
                3
            ]
        }
    ],
    "nodes" : [
        {
            "name" : "Camera",
            "rotation" : [
                0.483536034822464,
                0.33687159419059753,
                -0.20870360732078552,
                0.7804827094078064
            ],
            "translation" : [
                7.358891487121582,
                4.958309173583984,
                6.925790786743164
            ]
        },
        {
            "mesh" : 0,
            "name" : "Body",
            "rotation" : [
                0,
                -0.7071067690849304,
                0,
                0.7071067690849304
            ],
            "translation" : [
                0.0029394172597676516,
                0,
                0.002921885112300515
            ]
        },
        {
            "mesh" : 1,
            "name" : "RArm",
            "rotation" : [
                0.5,
                -0.5,
                0.5,
                0.4999999701976776
            ],
            "translation" : [
                0.3039345443248749,
                0,
                0.0029223859310150146
            ]
        },
        {
            "mesh" : 2,
            "name" : "LArm",
            "rotation" : [
                -0.4999999701976776,
                -0.5,
                -0.5,
                0.5
            ],
            "translation" : [
                -0.3068476915359497,
                0.009995202533900738,
                0.002947688102722168
            ]
        }
    ],
    "materials" : [
        {
            "doubleSided" : true,
            "emissiveFactor" : [
                0.003935939632356167,
                0.003935939632356167,
                0.003935939632356167
            ],
            "name" : "Material.001",
            "pbrMetallicRoughness" : {
                "baseColorTexture" : {
                    "index" : 0,
                    "texCoord" : 0
                },
                "metallicFactor" : 0,
                "roughnessFactor" : 0.5
            }
        }
    ],
    "meshes" : [
        {
            "name" : "Sphere.004",
            "primitives" : [
                {
                    "attributes" : {
                        "POSITION" : 0,
                        "NORMAL" : 1,
                        "TEXCOORD_0" : 2
                    },
                    "indices" : 3,
                    "material" : 0
                }
            ]
        },
        {
            "name" : "Cylinder.002",
            "primitives" : [
                {
                    "attributes" : {
                        "POSITION" : 4,
                        "NORMAL" : 5,
                        "TEXCOORD_0" : 6
                    },
                    "indices" : 7
                }
            ]
        },
        {
            "name" : "Cylinder.003",
            "primitives" : [
                {
                    "attributes" : {
                        "POSITION" : 8,
                        "NORMAL" : 9,
                        "TEXCOORD_0" : 10
                    },
                    "indices" : 7
                }
            ]
        }
    ],
    "textures" : [
        {
            "source" : 0
        }
    ],
    "images" : [
        {
            "mimeType" : "image/png",
            "name" : "-ion",
            "uri" : "-ion.png"
        }
    ],
    "accessors" : [
        {
            "bufferView" : 0,
            "componentType" : 5126,
            "count" : 2240,
            "max" : [
                0.1999998390674591,
                0.20000000298023224,
                0.19999973475933075
            ],
            "min" : [
                -0.19999977946281433,
                -0.20000000298023224,
                -0.20000000298023224
            ],
            "type" : "VEC3"
        },
        {
            "bufferView" : 1,
            "componentType" : 5126,
            "count" : 2240,
            "type" : "VEC3"
        },
        {
            "bufferView" : 2,
            "componentType" : 5126,
            "count" : 2240,
            "type" : "VEC2"
        },
        {
            "bufferView" : 3,
            "componentType" : 5123,
            "count" : 3264,
            "type" : "SCALAR"
        },
        {
            "bufferView" : 4,
            "componentType" : 5126,
            "count" : 4864,
            "max" : [
                0.0778321921825409,
                0.130000501871109,
                0.061413850635290146
            ],
            "min" : [
                -0.4039408266544342,
                -0.24411854147911072,
                -0.0789184719324112
            ],
            "type" : "VEC3"
        },
        {
            "bufferView" : 5,
            "componentType" : 5126,
            "count" : 4864,
            "type" : "VEC3"
        },
        {
            "bufferView" : 6,
            "componentType" : 5126,
            "count" : 4864,
            "type" : "VEC2"
        },
        {
            "bufferView" : 7,
            "componentType" : 5123,
            "count" : 7272,
            "type" : "SCALAR"
        },
        {
            "bufferView" : 8,
            "componentType" : 5126,
            "count" : 4864,
            "max" : [
                0.0778321921825409,
                0.130000501871109,
                0.061413850635290146
            ],
            "min" : [
                -0.4039408266544342,
                -0.24411854147911072,
                -0.0789184719324112
            ],
            "type" : "VEC3"
        },
        {
            "bufferView" : 9,
            "componentType" : 5126,
            "count" : 4864,
            "type" : "VEC3"
        },
        {
            "bufferView" : 10,
            "componentType" : 5126,
            "count" : 4864,
            "type" : "VEC2"
        }
    ],
    "bufferViews" : [
        {
            "buffer" : 0,
            "byteLength" : 26880,
            "byteOffset" : 0
        },
        {
            "buffer" : 0,
            "byteLength" : 26880,
            "byteOffset" : 26880
        },
        {
            "buffer" : 0,
            "byteLength" : 17920,
            "byteOffset" : 53760
        },
        {
            "buffer" : 0,
            "byteLength" : 6528,
            "byteOffset" : 71680
        },
        {
            "buffer" : 0,
            "byteLength" : 58368,
            "byteOffset" : 78208
        },
        {
            "buffer" : 0,
            "byteLength" : 58368,
            "byteOffset" : 136576
        },
        {
            "buffer" : 0,
            "byteLength" : 38912,
            "byteOffset" : 194944
        },
        {
            "buffer" : 0,
            "byteLength" : 14544,
            "byteOffset" : 233856
        },
        {
            "buffer" : 0,
            "byteLength" : 58368,
            "byteOffset" : 248400
        },
        {
            "buffer" : 0,
            "byteLength" : 58368,
            "byteOffset" : 306768
        },
        {
            "buffer" : 0,
            "byteLength" : 38912,
            "byteOffset" : 365136
        }
    ],
    "buffers" : [
        {
            "byteLength" : 404048,
            "uri" : "-Ion.bin"
        }
    ]
}
